<?xml version="1.0" encoding="utf-8"?>
<!-- Generator: Adobe Illustrator 23.0.6, SVG Export Plug-In . SVG Version: 6.00 Build 0)  -->
<svg version="1.1" id="Layer_1" xmlns="http://www.w3.org/2000/svg" xmlns:xlink="http://www.w3.org/1999/xlink" x="0px" y="0px"
	 viewBox="0 0 450 400" style="enable-background:new 0 0 450 400;" xml:space="preserve">
<style type="text/css">
	.st0{fill:#298732;stroke:#000000;stroke-miterlimit:10;}
	.st1{fill:none;}
	.st2{fill:none;stroke:#000000;stroke-linecap:round;stroke-miterlimit:10;}
	.st3{fill:#33A33D;stroke:#000000;stroke-miterlimit:10;}
	.st4{fill:#38A543;stroke:#000000;stroke-miterlimit:10;}
	.st5{fill:url(#SVGID_1_);stroke:url(#SVGID_2_);stroke-miterlimit:10;}
	.st6{fill:#FFFFFF;stroke:#000000;stroke-miterlimit:10;}
	.st7{fill:url(#SVGID_3_);stroke:url(#SVGID_4_);stroke-miterlimit:10;}
	.st8{fill:#FFFFFF;stroke:#000000;stroke-width:0.5;stroke-miterlimit:10;}
	.st9{fill:url(#SVGID_5_);stroke:url(#SVGID_6_);stroke-miterlimit:10;}
</style>
<g id="leaf1">
	<g>
		
			<image style="overflow:visible;opacity:0.7;enable-background:new    ;" width="213" height="246" xlink:href="ECB4C285E4B460A9.png"  transform="matrix(-1 0 0 1 329 153)">
		</image>
		<g>
			<g>
				<path class="st0" d="M259.4,175.9c-33.5-15-92.6-0.8-92.6-0.8s29.7,17.7,30.8,42.6c1.1,25-52.7,27.9-52.7,27.9s34,23,35,41
					c-20.9,33.2-40.8,30.2-40.8,30.2s12.8,5.7,23.3,30.6c10.5,24.9,1.3,35.3,1.3,35.3s12.7-16.5,46.8-26.9
					c21.8-6.6,33.3-5.3,33.3-5.3s-1.7-7.6-11.3-34.1c-13.5-37.6,52.5-19.8,52.5-19.8s-26.3-8.6-24.7-47.2s55.1-6.9,55.1-6.9
					S266,178.8,259.4,175.9z"/>
				<g>
					
						<image style="overflow:visible;opacity:0.9;enable-background:new    ;" width="92" height="187" xlink:href="ECB4C285E4B460AB.png"  transform="matrix(-1 0 0 1 267 170)">
					</image>
					<g>
						<line class="st1" x1="259.4" y1="175.9" x2="181.4" y2="348.9"/>
						<line class="st2" x1="259.4" y1="175.9" x2="181.4" y2="348.9"/>
					</g>
				</g>
			</g>
		</g>
	</g>
</g>
<g id="leaf2">
	<g>
		
			<image style="overflow:visible;opacity:0.7;enable-background:new    ;" width="225" height="212" xlink:href="ECB4C285E4B460AE.png"  transform="matrix(-1 0 0 1 230 91)">
		</image>
		<g>
			<g>
				<path class="st3" d="M200.2,152.6c-19.3-28.8-73.8-47.1-73.8-47.1s14.9,29,3.3,49.6s-50,3.9-50,3.9s9.6,27.5,1.3,42.5
					c-31.6,11.8-43.1,5-43.1,5s6.2,11.9-1.4,34.9c-7.9,24.2-17.7,27.2-17.7,27.2s19.4-4.5,52,3.6c21,5.3,34.5,12.3,34.5,12.3
					s-0.6-12.3,2.9-32.8c6.5-37.2,43,2,43,2s-7.8-11.5,12.9-41.7s47.5,22.1,47.5,22.1S204,158.2,200.2,152.6z"/>
				<g>
					
						<image style="overflow:visible;opacity:0.9;enable-background:new    ;" width="148" height="107" xlink:href="ECB4C285E4B460AF.png"  transform="matrix(-1 0 0 1 208 147)">
					</image>
					<g>
						<line class="st1" x1="200.2" y1="152.6" x2="65.8" y2="246"/>
						<line class="st2" x1="200.2" y1="152.6" x2="65.8" y2="246"/>
					</g>
				</g>
			</g>
		</g>
	</g>
</g>
<g id="leaf3">
	<g>
		
			<image style="overflow:visible;opacity:0.7;enable-background:new    ;" width="241" height="255" xlink:href="ECB4C285E4B460AA.png"  transform="matrix(-1 0 0 1 448 97)">
		</image>
		<g>
			<g>
				<path class="st4" d="M280.5,129.1c-33.3,23.7-53.2,88.4-53.2,88.4s33.7-18.5,58.3-5.4c24.5,13.1-3.1,66.2-3.1,66.2
					s41.2-19.6,59.1-10.4c20,38.9,7.8,54.1,7.8,54.1s10.7-6.9,40.5-2.9c29.8,4,43.7,15,43.7,15s-9.3-16.7-8.4-56.4
					c0.6-28.2,9.7-36.3,9.7-36.3s-16.5,1.2-35-7.1c-40.5-18.4,10.8-61.5,10.8-61.5s-23.1,20.3-59.2-3.1s24.6-56.7,24.6-56.7
					S287.1,124.4,280.5,129.1z"/>
				<g>
					
						<image style="overflow:visible;opacity:0.9;enable-background:new    ;" width="137" height="183" xlink:href="ECB4C285E4B460A5.png"  transform="matrix(-1 0 0 1 412 123)">
					</image>
					<g>
						<line class="st1" x1="280.5" y1="129.1" x2="404.3" y2="297.5"/>
						<line class="st2" x1="280.5" y1="129.1" x2="404.3" y2="297.5"/>
					</g>
				</g>
			</g>
		</g>
	</g>
</g>
<g id="ball1">
	<g>
		
			<image style="overflow:visible;opacity:0.7;enable-background:new    ;" width="131" height="131" xlink:href="ECB4C285E4B460A6.png"  transform="matrix(-1 0 0 1 332 83)">
		</image>
		<g>
			<g>
				
					<radialGradient id="SVGID_1_" cx="188.49" cy="255.1" r="49.43" gradientTransform="matrix(-1 0 0 -1 453 402)" gradientUnits="userSpaceOnUse">
					<stop  offset="0" style="stop-color:#FF0000"/>
					<stop  offset="0.2285" style="stop-color:#F90404"/>
					<stop  offset="0.5298" style="stop-color:#E90E10"/>
					<stop  offset="0.8705" style="stop-color:#CD1F24"/>
					<stop  offset="1" style="stop-color:#C1272D"/>
				</radialGradient>
				
					<radialGradient id="SVGID_2_" cx="188.49" cy="255.1" r="49.93" gradientTransform="matrix(-1 0 0 -1 453 402)" gradientUnits="userSpaceOnUse">
					<stop  offset="0" style="stop-color:#FFFFFF"/>
					<stop  offset="1" style="stop-color:#000000"/>
				</radialGradient>
				<circle class="st5" cx="264.5" cy="146.9" r="49.4"/>
				<circle class="st6" cx="243.8" cy="119.4" r="6.1"/>
			</g>
		</g>
	</g>
</g>
<g id="ball2">
	<g>
		
			<radialGradient id="SVGID_3_" cx="237.45" cy="275.65" r="51.88" gradientTransform="matrix(-1 0 0 -1 453 402)" gradientUnits="userSpaceOnUse">
			<stop  offset="0" style="stop-color:#FF0000"/>
			<stop  offset="0.2285" style="stop-color:#F90404"/>
			<stop  offset="0.5298" style="stop-color:#E90E10"/>
			<stop  offset="0.8705" style="stop-color:#CD1F24"/>
			<stop  offset="1" style="stop-color:#C1272D"/>
		</radialGradient>
		
			<radialGradient id="SVGID_4_" cx="237.45" cy="275.65" r="52.38" gradientTransform="matrix(-1 0 0 -1 453 402)" gradientUnits="userSpaceOnUse">
			<stop  offset="0" style="stop-color:#FFFFFF"/>
			<stop  offset="1" style="stop-color:#000000"/>
		</radialGradient>
		<circle class="st7" cx="215.6" cy="126.3" r="51.9"/>
		<circle class="st8" cx="193.8" cy="97.5" r="6.5"/>
	</g>
</g>
<g id="ball3">
	<g>
		
			<radialGradient id="SVGID_5_" cx="165.21" cy="295.99" r="55.56" gradientTransform="matrix(-1 0 0 -1 453 402)" gradientUnits="userSpaceOnUse">
			<stop  offset="0" style="stop-color:#FF0000"/>
			<stop  offset="0.2285" style="stop-color:#F90404"/>
			<stop  offset="0.5298" style="stop-color:#E90E10"/>
			<stop  offset="0.8705" style="stop-color:#CD1F24"/>
			<stop  offset="1" style="stop-color:#C1272D"/>
		</radialGradient>
		
			<radialGradient id="SVGID_6_" cx="165.21" cy="295.99" r="56.06" gradientTransform="matrix(-1 0 0 -1 453 402)" gradientUnits="userSpaceOnUse">
			<stop  offset="0" style="stop-color:#FFFFFF"/>
			<stop  offset="1" style="stop-color:#000000"/>
		</radialGradient>
		<circle class="st9" cx="287.8" cy="106" r="55.6"/>
		<circle class="st8" cx="264.5" cy="75.1" r="6.9"/>
	</g>
</g>
</svg>
